<svg xmlns="http://www.w3.org/2000/svg" width="77" height="77" viewBox="0 0 77 77" fill="none"><g clip-path="url(#clip0_422_14064)"><path d="M10.0787 22.6118L9.17787 17.8597C8.95792 16.7028 9.02271 15.5098 9.36672 14.3835C9.71073 13.2573 10.3237 12.2316 11.1525 11.3951C11.9813 10.5586 13.0013 9.93622 14.1243 9.58179C15.2473 9.22737 16.4397 9.15149 17.5985 9.36071L22.3637 10.2224C23.7414 10.4716 25.1619 10.3157 26.4527 9.77339C27.7435 9.23112 28.8491 8.32584 29.6355 7.16744L32.364 3.15946C33.0332 2.19272 33.9267 1.40266 34.9681 0.856938C36.0095 0.311219 37.1677 0.026123 38.3434 0.026123C39.5191 0.026123 40.6772 0.311219 41.7186 0.856938C42.76 1.40266 43.6535 2.19272 44.3226 3.15946L47.0773 7.07604C47.8805 8.22336 48.997 9.11534 50.2934 9.64546C51.5897 10.1756 53.0113 10.3215 54.3883 10.0657L59.1534 9.16489C60.3086 8.94482 61.5 9.0092 62.6247 9.35251C63.7495 9.69581 64.7737 10.3077 65.6091 11.1354C66.4445 11.963 67.0659 12.9816 67.4196 14.1031C67.7733 15.2246 67.8487 16.4153 67.6393 17.5725L66.7777 22.3377C66.5291 23.7172 66.6853 25.1393 67.2275 26.4321C67.7696 27.7248 68.6744 28.8329 69.8327 29.6225L73.8406 32.3511C74.81 33.0168 75.6027 33.9085 76.1505 34.9491C76.6982 35.9897 76.9844 37.1479 76.9844 38.3238C76.9844 39.4998 76.6982 40.6581 76.1505 41.6987C75.6027 42.7392 74.81 43.6309 73.8406 44.2966L69.924 47.0643C68.7752 47.8626 67.8826 48.9769 67.3543 50.2722C66.826 51.5675 66.6847 52.9882 66.9475 54.3622L67.8483 59.1274C68.0658 60.2834 67.9991 61.4748 67.654 62.5993C67.3089 63.7238 66.6957 64.7476 65.8672 65.5825C65.0387 66.4174 64.0196 67.0385 62.8979 67.3923C61.7761 67.746 60.5852 67.8219 59.4276 67.6134L54.6625 66.7517C53.2849 66.5058 51.8655 66.6633 50.5754 67.2053C49.2852 67.7473 48.1793 68.6507 47.3907 69.8066L44.6621 73.8146C43.9949 74.784 43.102 75.5766 42.0604 76.1242C41.0187 76.6717 39.8596 76.9579 38.6828 76.9579C37.506 76.9579 36.3469 76.6717 35.3052 76.1242C34.2636 75.5766 33.3707 74.784 32.7035 73.8146L29.9488 69.898C29.1489 68.7471 28.0329 67.8523 26.7356 67.3217C25.4382 66.7912 24.015 66.6476 22.6379 66.9083L17.8726 67.8092C16.718 68.026 15.5279 67.9593 14.4047 67.6149C13.2814 67.2704 12.2587 66.6585 11.4241 65.8316C10.5895 65.0047 9.96804 63.9876 9.61318 62.8676C9.25832 61.7476 9.18058 60.5582 9.38672 59.4016L10.2484 54.6234C10.496 53.2457 10.3392 51.8259 9.79709 50.5354C9.25495 49.2449 8.35062 48.1391 7.19344 47.3516L3.18546 44.623C2.21609 43.9558 1.42351 43.0629 0.87593 42.0213C0.32835 40.9796 0.0422058 39.8205 0.0422058 38.6437C0.0422058 37.4669 0.32835 36.3078 0.87593 35.2661C1.42351 34.2245 2.21609 33.3316 3.18546 32.6644L7.16739 29.9097C8.30308 29.1021 9.18175 27.9841 9.69812 26.6897C10.2145 25.3953 10.3466 23.9794 10.0787 22.6118Z" fill="#F7C844"></path><path d="M30.0532 48.6961C29.5349 48.6915 29.0386 48.4855 28.6694 48.1217C28.3058 47.7528 28.102 47.2557 28.102 46.7378C28.102 46.2199 28.3058 45.7228 28.6694 45.354L45.9285 28.108C46.1094 27.9248 46.3249 27.7794 46.5624 27.6801C46.8 27.5809 47.0549 27.5298 47.3123 27.5298C47.5698 27.5298 47.8247 27.5809 48.0622 27.6801C48.2998 27.7794 48.5153 27.9248 48.6962 28.108C49.0598 28.4768 49.2635 28.9739 49.2635 29.4918C49.2635 30.0097 49.0598 30.5068 48.6962 30.8757L31.4371 48.1217C31.2558 48.3042 31.0403 48.4489 30.8027 48.5475C30.5652 48.6461 30.3104 48.6966 30.0532 48.6961Z" fill="#0C0D10"></path><path d="M30.0402 34.5964C32.434 34.5964 34.3745 32.6559 34.3745 30.2621C34.3745 27.8683 32.434 25.9277 30.0402 25.9277C27.6464 25.9277 25.7058 27.8683 25.7058 30.2621C25.7058 32.6559 27.6464 34.5964 30.0402 34.5964Z" fill="#0C0D10"></path><path d="M46.9598 51.0723C49.3536 51.0723 51.2942 49.1317 51.2942 46.7379C51.2942 44.3441 49.3536 42.4036 46.9598 42.4036C44.566 42.4036 42.6255 44.3441 42.6255 46.7379C42.6255 49.1317 44.566 51.0723 46.9598 51.0723Z" fill="#0C0D10"></path></g><defs><clipPath id="clip0_422_14064"><rect width="77" height="77" fill="white"></rect></clipPath></defs></svg>