<svg xmlns="http://www.w3.org/2000/svg" width="74" height="73" viewBox="0 0 74 73" fill="none"><g clip-path="url(#clip0_425_14083)"><path d="M21.3483 30.237L20.6292 26.4894C20.458 25.5803 20.5105 24.6433 20.782 23.759C21.0536 22.8746 21.5362 22.0695 22.1881 21.4129C22.8401 20.7563 23.642 20.2678 24.5247 19.9896C25.4075 19.7114 26.3446 19.6517 27.2556 19.8157L31.0054 20.4934C32.091 20.6862 33.2091 20.5622 34.2259 20.1361C35.2426 19.7099 36.1148 18.9998 36.738 18.0908L38.8749 14.9388C39.3999 14.1764 40.1026 13.5531 40.9223 13.1224C41.742 12.6918 42.6541 12.4668 43.5802 12.4668C44.5062 12.4668 45.4184 12.6918 46.2381 13.1224C47.0578 13.5531 47.7604 14.1764 48.2855 14.9388L50.4634 18.019C51.0912 18.9233 51.9676 19.6266 52.9867 20.0438C54.0059 20.4611 55.1241 20.5744 56.2063 20.3702L59.9561 19.6617C60.8648 19.4912 61.8013 19.5436 62.6852 19.8145C63.5691 20.0854 64.3739 20.5667 65.0307 21.217C65.6875 21.8673 66.1765 22.6672 66.4557 23.548C66.735 24.4288 66.7961 25.3642 66.6339 26.2738L65.9558 30.0316C65.7636 31.115 65.8882 32.2307 66.3146 33.2451C66.741 34.2595 67.4512 35.1294 68.3599 35.7505L71.5138 37.8963C72.2767 38.4211 72.9003 39.1233 73.3313 39.9424C73.7622 40.7616 73.9873 41.6732 73.9873 42.5987C73.9873 43.5242 73.7622 44.4358 73.3313 45.255C72.9003 46.0742 72.2767 46.7764 71.5138 47.3011L68.4318 49.4675C67.5269 50.097 66.8241 50.9751 66.4084 51.9955C65.9926 53.016 65.8818 54.135 66.0894 55.2171L66.7983 58.9544C66.9713 59.8643 66.9204 60.8025 66.6497 61.6882C66.3789 62.574 65.8967 63.3806 65.2444 64.0385C64.5922 64.6964 63.7896 65.1858 62.9059 65.4645C62.0222 65.7432 61.0838 65.803 60.1718 65.6384L56.4221 64.9607C55.338 64.766 54.2206 64.8893 53.2051 65.3157C52.1896 65.742 51.3194 66.4532 50.6997 67.3633L48.5525 70.5153C48.026 71.2756 47.3229 71.897 46.5034 72.3261C45.6839 72.7553 44.7725 72.9795 43.8473 72.9795C42.9221 72.9795 42.0107 72.7553 41.1912 72.3261C40.3717 71.897 39.6686 71.2756 39.142 70.5153L36.9743 67.3838C36.3431 66.4805 35.4647 65.7783 34.4443 65.3613C33.4239 64.9443 32.3048 64.8302 31.2211 65.0326L27.4714 65.7411C26.5623 65.9141 25.6248 65.8635 24.7397 65.5935C23.8546 65.3235 23.0486 64.8423 22.3912 64.1914C21.7339 63.5405 21.2449 62.7394 20.9665 61.8574C20.6882 60.9755 20.6288 60.039 20.7936 59.129L21.4716 55.3814C21.6672 54.2964 21.5443 53.1781 21.1177 52.1614C20.6911 51.1448 19.9791 50.2733 19.0676 49.6523L15.9137 47.5167C15.1508 46.992 14.5271 46.2898 14.0962 45.4706C13.6653 44.6514 13.4401 43.7398 13.4401 42.8143C13.4401 41.8888 13.6653 40.9772 14.0962 40.1581C14.5271 39.3389 15.1508 38.6367 15.9137 38.1119L19.0471 35.9353C19.9345 35.3037 20.6226 34.4316 21.0303 33.422C21.4381 32.4123 21.5484 31.3072 21.3483 30.237Z" fill="#965D1E"></path><path d="M37.9195 33.0091L41.1145 26.8488C41.386 26.3616 41.7848 25.9572 42.2682 25.6788C42.7517 25.4003 43.3017 25.2583 43.8596 25.2678C44.4175 25.2773 44.9624 25.4379 45.436 25.7326C45.9097 26.0274 46.2945 26.4451 46.5492 26.9412L49.5285 33.235C49.7418 33.6758 50.0572 34.0594 50.4485 34.354C50.8397 34.6486 51.2957 34.8457 51.7784 34.9291L58.6617 36.0482C59.2095 36.1555 59.7179 36.4094 60.1325 36.7829C60.5472 37.1564 60.8526 37.6354 61.0161 38.1688C61.1796 38.7022 61.1951 39.27 61.0609 39.8115C60.9266 40.353 60.6478 40.8479 60.254 41.2434L55.1789 46.0177C54.8247 46.3577 54.557 46.7773 54.398 47.2417C54.2389 47.706 54.1932 48.2016 54.2646 48.6872L55.2919 55.5662C55.3509 56.1165 55.2605 56.6725 55.0301 57.1757C54.7997 57.679 54.4378 58.1109 53.9827 58.426C53.5275 58.7412 52.9958 58.928 52.4434 58.9668C51.891 59.0056 51.3383 58.8949 50.8436 58.6464L44.6795 55.2993C44.2426 55.0742 43.7583 54.9567 43.2668 54.9567C42.7754 54.9567 42.291 55.0742 41.8542 55.2993L35.6901 58.3795C35.184 58.6148 34.6235 58.7083 34.0683 58.6501C33.5131 58.5918 32.9842 58.384 32.538 58.0488C32.0918 57.7136 31.7451 57.2635 31.5349 56.7467C31.3247 56.2299 31.2588 55.6658 31.3444 55.1145L32.6389 48.2662C32.7303 47.784 32.7022 47.2868 32.5572 46.8179C32.4121 46.349 32.1545 45.9227 31.8067 45.5762L26.9063 40.6274C26.5275 40.2188 26.2667 39.7151 26.1516 39.1701C26.0365 38.625 26.0715 38.059 26.2528 37.5322C26.4341 37.0055 26.755 36.5377 27.1812 36.1787C27.6075 35.8198 28.1231 35.5831 28.6733 35.4938L35.5874 34.6005C36.0767 34.5461 36.5452 34.3726 36.9518 34.0951C37.3583 33.8176 37.6906 33.4448 37.9195 33.0091Z" fill="#F5C555"></path><path d="M9.09205 7.16644L11.5166 1.18066C11.6505 0.844768 11.8822 0.556744 12.1816 0.353837C12.4811 0.150931 12.8345 0.0424805 13.1963 0.0424805C13.5581 0.0424805 13.9115 0.150931 14.211 0.353837C14.5104 0.556744 14.7421 0.844768 14.876 1.18066L17.167 7.13564C17.2539 7.37078 17.3907 7.58433 17.5681 7.76158C17.7454 7.93882 17.9591 8.07554 18.1944 8.16236L24.153 10.4622C24.4899 10.5938 24.7794 10.8239 24.9834 11.1225C25.1875 11.4211 25.2966 11.7742 25.2966 12.1358C25.2966 12.4974 25.1875 12.8505 24.9834 13.1491C24.7794 13.4477 24.4899 13.6778 24.153 13.8093L18.143 16.2324C17.911 16.3249 17.7002 16.4636 17.5235 16.6401C17.3469 16.8166 17.2081 17.0272 17.1156 17.2591L14.6911 23.2655C14.5595 23.6022 14.3292 23.8915 14.0304 24.0954C13.7316 24.2993 13.3783 24.4083 13.0165 24.4083C12.6548 24.4083 12.3014 24.2993 12.0026 24.0954C11.7038 23.8915 11.4736 23.6022 11.3419 23.2655L9.04069 17.3105C8.95504 17.0746 8.81865 16.8605 8.64114 16.6831C8.46363 16.5056 8.24932 16.3693 8.01334 16.2837L2.04444 13.9839C1.70747 13.8523 1.41807 13.6222 1.21405 13.3236C1.01003 13.025 0.900841 12.6719 0.900841 12.3103C0.900841 11.9488 1.01003 11.5956 1.21405 11.297C1.41807 10.9985 1.70747 10.7683 2.04444 10.6368L8.05442 8.21371C8.29129 8.12182 8.50612 7.98106 8.68491 7.80062C8.8637 7.62017 9.00243 7.40406 9.09205 7.16644Z" fill="#F5C555"></path><path d="M3.41077 27.8756L4.43812 25.3704C4.49471 25.233 4.59087 25.1156 4.71434 25.033C4.8378 24.9504 4.98304 24.9063 5.13163 24.9062C5.28022 24.9063 5.42547 24.9504 5.54893 25.033C5.6724 25.1156 5.7685 25.233 5.82508 25.3704L6.78051 27.8448C6.81595 27.9413 6.872 28.0289 6.94473 28.1016C7.01747 28.1743 7.10513 28.2303 7.2017 28.2657L9.67764 29.2206C9.8192 29.2731 9.94126 29.3676 10.0275 29.4915C10.1137 29.6154 10.1599 29.7627 10.1599 29.9136C10.1599 30.0645 10.1137 30.2118 10.0275 30.3357C9.94126 30.4596 9.8192 30.5541 9.67764 30.6066L7.17091 31.6334C7.07434 31.6688 6.98662 31.7248 6.91388 31.7975C6.84115 31.8702 6.7851 31.9578 6.74966 32.0543L5.72231 34.5595C5.66976 34.701 5.5752 34.823 5.45124 34.9092C5.32727 34.9953 5.17986 35.0415 5.02886 35.0415C4.87786 35.0415 4.73051 34.9953 4.60655 34.9092C4.48258 34.823 4.38796 34.701 4.33541 34.5595L3.37998 32.0851C3.34454 31.9886 3.2885 31.901 3.21576 31.8283C3.14303 31.7556 3.0553 31.6996 2.95874 31.6642L0.482851 30.7093C0.341291 30.6568 0.219175 30.5622 0.13296 30.4384C0.0467454 30.3145 0.000591278 30.1672 0.000591278 30.0163C0.000591278 29.8654 0.0467454 29.7181 0.13296 29.5942C0.219175 29.4703 0.341291 29.3758 0.482851 29.3232L2.98959 28.2965C3.08615 28.2611 3.17388 28.2051 3.24661 28.1324C3.31935 28.0597 3.37533 27.9721 3.41077 27.8756Z" fill="#F5C555"></path></g><defs><clipPath id="clip0_425_14083"><rect width="74" height="73" fill="white"></rect></clipPath></defs></svg>