<svg xmlns="http://www.w3.org/2000/svg" width="73" height="70" viewBox="0 0 73 70" fill="none"><g clip-path="url(#clip0_430_14094)"><path d="M3.76244 20.0205H72.9567V65.0093C72.9663 65.6683 72.8441 66.3226 72.5974 66.9345C72.3506 67.5464 71.9841 68.1038 71.5191 68.5745C71.054 69.0451 70.4996 69.4197 69.8878 69.6767C69.276 69.9337 68.6189 70.0679 67.9546 70.0716H8.79344C7.45913 70.0716 6.17948 69.5458 5.23598 68.6098C4.29249 67.6738 3.76244 66.4044 3.76244 65.0808V20.0205Z" fill="#88D5A9"></path><path d="M73 15.6301L3.80569 15.6301V5.00499C3.80569 3.68134 4.33572 2.41193 5.27921 1.47597C6.22271 0.540016 7.50237 0.0141945 8.83668 0.0141945L67.9402 0.0141945C69.2745 0.0141945 70.5541 0.540016 71.4976 1.47597C72.4411 2.41193 72.9712 3.68134 72.9712 5.00499V15.6301H73Z" fill="#88D5A8"></path><path d="M64.0624 11.4118C65.8139 11.4118 67.2338 10.0032 67.2338 8.2657C67.2338 6.52817 65.8139 5.11963 64.0624 5.11963C62.3109 5.11963 60.891 6.52817 60.891 8.2657C60.891 10.0032 62.3109 11.4118 64.0624 11.4118Z" fill="white"></path><path d="M54.3464 11.4118C56.0979 11.4118 57.5178 10.0032 57.5178 8.2657C57.5178 6.52817 56.0979 5.11963 54.3464 5.11963C52.5948 5.11963 51.175 6.52817 51.175 8.2657C51.175 10.0032 52.5948 11.4118 54.3464 11.4118Z" fill="white"></path><path d="M44.6303 11.4118C46.3818 11.4118 47.8017 10.0032 47.8017 8.2657C47.8017 6.52817 46.3818 5.11963 44.6303 5.11963C42.8788 5.11963 41.4589 6.52817 41.4589 8.2657C41.4589 10.0032 42.8788 11.4118 44.6303 11.4118Z" fill="white"></path><path d="M38.374 15.3443V29.2728C38.374 31.3549 37.5402 33.3519 36.056 34.8242C34.5718 36.2965 32.5588 37.1236 30.4599 37.1236V43.4158L21.0178 37.1236H7.9141C5.81515 37.1236 3.80217 36.2965 2.31798 34.8242C0.833802 33.3519 1.52588e-05 31.3549 1.52588e-05 29.2728V15.3443C1.52588e-05 13.2621 0.833802 11.2652 2.31798 9.79288C3.80217 8.32055 5.81515 7.49341 7.9141 7.49341H30.4599C31.4992 7.49341 32.5283 7.69646 33.4885 8.09101C34.4487 8.48555 35.3211 9.06386 36.056 9.79288C36.7909 10.5219 37.3739 11.3874 37.7716 12.3399C38.1693 13.2924 38.374 14.3133 38.374 15.3443Z" fill="#11602E"></path><path d="M29.6382 14.2002H8.44747C6.82334 14.2002 5.50671 15.5063 5.50671 17.1175C5.50671 18.7286 6.82334 20.0347 8.44747 20.0347H29.6382C31.2624 20.0347 32.579 18.7286 32.579 17.1175C32.579 15.5063 31.2624 14.2002 29.6382 14.2002Z" fill="#DEFCF1"></path><path d="M18.9564 24.3821H8.44747C6.82334 24.3821 5.50671 25.6882 5.50671 27.2993C5.50671 28.9105 6.82334 30.2166 8.44747 30.2166H18.9564C20.5805 30.2166 21.8971 28.9105 21.8971 27.2993C21.8971 25.6882 20.5805 24.3821 18.9564 24.3821Z" fill="#DEFCF1"></path><path d="M53.0346 43.1441C57.8831 43.1441 61.8136 39.245 61.8136 34.4352C61.8136 29.6254 57.8831 25.7263 53.0346 25.7263C48.186 25.7263 44.2555 29.6254 44.2555 34.4352C44.2555 39.245 48.186 43.1441 53.0346 43.1441Z" fill="#DEFCF1"></path><path d="M49.1856 45.6466H56.8835C59.64 45.6466 62.2837 46.7329 64.2328 48.6665C66.182 50.6001 67.277 53.2226 67.277 55.9571V60.9193C67.277 61.731 66.952 62.5094 66.3735 63.0833C65.795 63.6572 65.0103 63.9796 64.1921 63.9796H41.8914C41.0732 63.9796 40.2886 63.6572 39.71 63.0833C39.1315 62.5094 38.8065 61.731 38.8065 60.9193V55.9428C38.8065 53.2083 39.9015 50.5858 41.8507 48.6522C43.7998 46.7186 46.4435 45.6323 49.2 45.6323L49.1856 45.6466Z" fill="#DEFCF1"></path></g><defs><clipPath id="clip0_430_14094"><rect width="73" height="70" fill="white"></rect></clipPath></defs></svg>