<svg xmlns="http://www.w3.org/2000/svg" width="95" height="70" viewBox="0 0 95 70" fill="none"><path d="M94.5003 44.8776V57.6626C94.5003 59.094 93.9325 60.4668 92.922 61.479C91.9115 62.4911 90.541 63.0598 89.1119 63.0598H16.3464C14.9173 63.0598 13.5467 62.4911 12.5362 61.479C11.5257 60.4668 10.958 59.094 10.958 57.6626V10.1753H61.2675C62.6966 10.1753 64.0671 10.7439 65.0776 11.7561C66.0881 12.7682 66.6559 14.141 66.6559 15.5724V33.9829C66.6559 34.678 66.9315 35.3447 67.4222 35.8362C67.913 36.3277 68.5785 36.6038 69.2725 36.6038H85.1276L90.06 41.0603L94.5003 44.8776Z" fill="#96A2F8"></path><path d="M68.4793 15.8098L73.5941 16.4034C74.4321 16.5022 75.2275 16.8271 75.8955 17.3434C76.5635 17.8597 77.0791 18.548 77.387 19.3348L83.4227 34.8048H69.7466C69.4154 34.8048 69.0977 34.6729 68.8634 34.4383C68.6292 34.2037 68.4976 33.8854 68.4976 33.5536L68.4793 15.8098Z" fill="#BCBFF8"></path><path d="M36.5412 62.3657C36.5412 62.6032 36.5412 62.8406 36.5412 63.0689H21.3244C21.3244 62.8406 21.3244 62.6032 21.3244 62.3657C21.3244 60.341 22.1275 58.3991 23.5569 56.9673C24.9863 55.5356 26.925 54.7312 28.9465 54.7312C30.968 54.7312 32.9067 55.5356 34.3361 56.9673C35.7656 58.3991 36.5686 60.341 36.5686 62.3657H36.5412Z" fill="#0C0D10"></path><path d="M80.5324 62.3657C80.5324 62.6032 80.5324 62.8406 80.5324 63.0689H65.3429C65.3429 62.8406 65.3429 62.6032 65.3429 62.3657C65.3429 60.341 66.146 58.3991 67.5754 56.9673C69.0048 55.5356 70.9435 54.7312 72.965 54.7312C74.9865 54.7312 76.9253 55.5356 78.3547 56.9673C79.7841 58.3991 80.5872 60.341 80.5872 62.3657H80.5324Z" fill="#0C0D10"></path><path d="M30.2776 70.0002C34.4872 70.0002 37.8997 66.5821 37.8997 62.3657C37.8997 58.1493 34.4872 54.7312 30.2776 54.7312C26.0681 54.7312 22.6555 58.1493 22.6555 62.3657C22.6555 66.5821 26.0681 70.0002 30.2776 70.0002Z" fill="#96A2F8"></path><path d="M74.2688 70.0002C78.4784 70.0002 81.8909 66.5821 81.8909 62.3657C81.8909 58.1493 78.4784 54.7312 74.2688 54.7312C70.0592 54.7312 66.6467 58.1493 66.6467 62.3657C66.6467 66.5821 70.0592 70.0002 74.2688 70.0002Z" fill="#96A2F8"></path><rect width="44.3334" height="17.5" rx="3" fill="#64DF6E"></rect><path d="M7.28903 12.1667L8.61716 4.16675H13.7422L13.539 5.38159H9.86325L9.50388 7.55347H12.8281L12.625 8.76831H9.30075L8.73825 12.1667H7.28903ZM13.7343 12.1667L15.0625 4.16675H18.0625C18.6771 4.16675 19.1758 4.27352 19.5586 4.48706C19.9414 4.7006 20.2083 5.00008 20.3593 5.3855C20.5104 5.76831 20.5429 6.21493 20.457 6.72534C20.3737 7.23576 20.1914 7.67977 19.9101 8.05737C19.6315 8.43237 19.263 8.72274 18.8047 8.92847C18.3489 9.1342 17.8138 9.23706 17.1992 9.23706H15.0625L15.2656 8.03394H17.2109C17.5703 8.03394 17.8724 7.98446 18.1172 7.8855C18.3619 7.78394 18.5547 7.6368 18.6953 7.44409C18.8385 7.24878 18.9336 7.0092 18.9804 6.72534C19.0247 6.44149 19.0078 6.1993 18.9297 5.99878C18.8541 5.79565 18.7096 5.64201 18.4961 5.53784C18.2851 5.43107 18 5.37769 17.6406 5.37769H16.3125L15.1836 12.1667H13.7343ZM18.4687 8.54175L19.8476 12.1667H18.2304L16.8867 8.54175H18.4687ZM20.9316 12.1667L22.2597 4.16675H27.4629L27.2597 5.38159H23.5058L23.1465 7.55347H26.6308L26.4277 8.76831H22.9433L22.584 10.9519H26.3691L26.166 12.1667H20.9316ZM27.6133 12.1667L28.9414 4.16675H34.1445L33.9414 5.38159H30.1875L29.8281 7.55347H33.3125L33.1093 8.76831H29.625L29.2656 10.9519H33.0508L32.8476 12.1667H27.6133Z" fill="white"></path></svg>