<svg width="12" height="7" viewBox="0 0 12 7" fill="none" xmlns="http://www.w3.org/2000/svg">
<path d="M10.6315 2.97C10.7024 2.81 10.6861 2.855 10.7133 2.775C10.8769 2.17 10.5279 1.54 9.8955 1.31L8.79964 0.91C8.54884 0.82 8.28169 0.805 8.0309 0.85C7.97092 0.685 7.87279 0.535 7.74739 0.405C7.48569 0.145 7.1204 0 6.73875 0H5.26124C4.87415 0 4.50886 0.145 4.25261 0.405C4.12176 0.535 4.02363 0.685 3.96365 0.845C3.71286 0.8 3.44571 0.815 3.19491 0.905L2.09905 1.305C1.46661 1.535 1.11767 2.165 1.28124 2.77L1.36302 2.96C0.0545206 5.275 0 5.275 0 5.69C0 6.145 0.250795 6.56 0.676056 6.8C1.45025 7.24 2.03362 6.87 2.85688 6.495H9.14312C9.97183 6.875 10.1572 7 10.577 7C11.1222 7 12 6.615 12 5.695C11.9945 5.27 11.9291 5.255 10.6315 2.97ZM10.4244 5.965L9.50841 5.545L10.0972 4.195L10.866 5.55C11.0186 5.815 10.7079 6.095 10.4244 5.965ZM7.68196 5.495L8.01999 2.045C8.03635 1.88 8.22172 1.775 8.39073 1.835L9.4866 2.235C9.60654 2.28 9.67197 2.39 9.65561 2.505L8.34711 5.495H7.68196ZM3.64198 5.495L2.33348 2.505C2.31713 2.39 2.38255 2.28 2.5025 2.235L3.59836 1.835C3.76738 1.775 3.95275 1.875 3.9691 2.045L4.30713 5.495H3.64198ZM1.12858 5.55L1.89732 4.19L2.48614 5.545L1.5702 5.965C1.28669 6.095 0.97592 5.815 1.12858 5.55ZM4.98864 1.27C4.98562 1.23553 4.99044 1.20086 5.00278 1.16818C5.01512 1.1355 5.03472 1.10552 5.06035 1.08015C5.08597 1.05477 5.11705 1.03455 5.15163 1.02075C5.18621 1.00695 5.22353 0.999889 5.26124 1H6.73875C6.77646 0.999889 6.81379 1.00695 6.84837 1.02075C6.88295 1.03455 6.91403 1.05477 6.93965 1.08015C6.96528 1.10552 6.98488 1.1355 6.99722 1.16818C7.00956 1.20086 7.01438 1.23553 7.01136 1.27L6.59155 5.495H5.40845L4.98864 1.27Z" fill="#5F6266"/>
</svg>
