<svg width="9" height="10" viewBox="0 0 9 10" fill="none" xmlns="http://www.w3.org/2000/svg">
<path d="M0 6C0 6.65 0.378947 7.2 0.947368 7.4V9H0V10H2.84211V9H1.89474V7.4C2.46316 7.2 2.84211 6.65 2.84211 6V2H0V6ZM0.947368 3H1.89474V4.5H0.947368V3ZM8.33684 3.25L7.86316 3.1C7.72105 3.05 7.57895 2.85 7.57895 2.65V0.5C7.57895 0.25 7.34211 0 7.10526 0H5.68421C5.4 0 5.21053 0.25 5.21053 0.5V2.65C5.21053 2.85 5.06842 3.05 4.87895 3.15L4.45263 3.3C4.07368 3.45 3.78947 3.8 3.78947 4.25V9C3.78947 9.55 4.21579 10 4.73684 10H8.05263C8.57368 10 9 9.55 9 9V4.2C9 3.8 8.76316 3.4 8.33684 3.25ZM6.1579 1H6.63158V1.5H6.1579V1ZM4.73684 4.2L5.16316 4.05C5.77895 3.85 6.1579 3.3 6.1579 2.65V2.5H6.63158V2.65C6.63158 3.3 7.01053 3.85 7.57895 4.05L8.05263 4.2V5H4.73684V4.2ZM8.05263 9H4.73684V8H8.05263V9Z" fill="#5F6266"/>
</svg>
