<svg width="16" height="16" viewBox="0 0 16 16" fill="none" xmlns="http://www.w3.org/2000/svg">
<path d="M4.45863 3.53955C4.22218 3.53955 3.99541 3.63348 3.82821 3.80068C3.66101 3.96788 3.56708 4.19465 3.56708 4.43111C3.56708 4.66756 3.66101 4.89433 3.82821 5.06153C3.99541 5.22873 4.22218 5.32266 4.45863 5.32266H11.5253C11.7618 5.32266 11.9885 5.22873 12.1557 5.06153C12.3229 4.89433 12.4169 4.66756 12.4169 4.43111C12.4169 4.19465 12.3229 3.96788 12.1557 3.80068C11.9885 3.63348 11.7618 3.53955 11.5253 3.53955H4.45863ZM3.56974 7.99999C3.56974 7.50933 3.96708 7.10844 4.45863 7.10844H11.5253C11.7618 7.10844 11.9885 7.20237 12.1557 7.36957C12.3229 7.53677 12.4169 7.76354 12.4169 7.99999C12.4169 8.23645 12.3229 8.46322 12.1557 8.63042C11.9885 8.79762 11.7618 8.89155 11.5253 8.89155H4.45863C3.96708 8.89155 3.56974 8.49155 3.56974 7.99999ZM4.46663 10.6773C4.23006 10.6773 4.00318 10.7713 3.83589 10.9386C3.66861 11.1059 3.57463 11.3328 3.57463 11.5693C3.57463 11.8059 3.66861 12.0328 3.83589 12.2001C4.00318 12.3673 4.23006 12.4613 4.46663 12.4613H11.5333C11.7699 12.4613 11.9968 12.3673 12.164 12.2001C12.3313 12.0328 12.4253 11.8059 12.4253 11.5693C12.4253 11.3328 12.3313 11.1059 12.164 10.9386C11.9968 10.7713 11.7699 10.6773 11.5333 10.6773H4.46663Z" fill="white"/>
<path fill-rule="evenodd" clip-rule="evenodd" d="M0 2.66667C0 1.95942 0.280952 1.28115 0.781049 0.781049C1.28115 0.280952 1.95942 0 2.66667 0H13.3333C14.0406 0 14.7189 0.280952 15.219 0.781049C15.719 1.28115 16 1.95942 16 2.66667V13.3333C16 14.0406 15.719 14.7189 15.219 15.219C14.7189 15.719 14.0406 16 13.3333 16H2.66667C1.95942 16 1.28115 15.719 0.781049 15.219C0.280952 14.7189 0 14.0406 0 13.3333V2.66667ZM2.66667 1.77778H13.3333C13.5691 1.77778 13.7952 1.87143 13.9619 2.03813C14.1286 2.20483 14.2222 2.43092 14.2222 2.66667V13.3333C14.2222 13.5691 14.1286 13.7952 13.9619 13.9619C13.7952 14.1286 13.5691 14.2222 13.3333 14.2222H2.66667C2.43092 14.2222 2.20483 14.1286 2.03813 13.9619C1.87143 13.7952 1.77778 13.5691 1.77778 13.3333V2.66667C1.77778 2.43092 1.87143 2.20483 2.03813 2.03813C2.20483 1.87143 2.43092 1.77778 2.66667 1.77778Z" fill="white"/>
</svg>
