<svg width="10" height="10" viewBox="0 0 10 10" fill="none" xmlns="http://www.w3.org/2000/svg">
<path d="M6.26458 0.955805C6.15585 0.939534 6.04484 0.961399 5.95041 1.01769L0.238285 4.34976C0.215702 4.36291 0.194904 4.3789 0.176404 4.39736L0.128803 4.43544C0.0964475 4.47291 0.0692338 4.51453 0.0478808 4.5592C0.0140477 4.62197 -0.00238687 4.69263 0.000279795 4.76389V9.52399C0.000279795 9.65024 0.0504307 9.77131 0.1397 9.86058C0.228969 9.94985 0.350044 10 0.47629 10H9.04448C9.17072 10 9.2918 9.94985 9.38107 9.86058C9.47034 9.77131 9.52049 9.65024 9.52049 9.52399V4.76389C9.52227 3.84483 9.1949 2.95551 8.59765 2.25697C8.00039 1.55843 7.17275 1.09685 6.26458 0.955805ZM6.26458 1.93163C6.83687 2.04881 7.3602 2.33671 7.76555 2.75736C8.1709 3.178 8.43923 3.71164 8.53514 4.28788H2.23753L6.26458 1.93163ZM8.56847 9.04798H0.9523V5.2399H8.56847V9.04798Z" fill="#5F6266"/>
<path d="M2.1423 8.57195C2.53664 8.57195 2.85631 8.25228 2.85631 7.85794C2.85631 7.4636 2.53664 7.14392 2.1423 7.14392C1.74796 7.14392 1.42828 7.4636 1.42828 7.85794C1.42828 8.25228 1.74796 8.57195 2.1423 8.57195Z" fill="#5F6266"/>
<path d="M4.52237 7.14397C4.9167 7.14397 5.23638 6.8243 5.23638 6.42996C5.23638 6.03562 4.9167 5.71594 4.52237 5.71594C4.12803 5.71594 3.80835 6.03562 3.80835 6.42996C3.80835 6.8243 4.12803 7.14397 4.52237 7.14397Z" fill="#5F6266"/>
<path d="M7.14044 8.57189C7.66622 8.57189 8.09246 8.14565 8.09246 7.61987C8.09246 7.09408 7.66622 6.66785 7.14044 6.66785C6.61465 6.66785 6.18842 7.09408 6.18842 7.61987C6.18842 8.14565 6.61465 8.57189 7.14044 8.57189Z" fill="#5F6266"/>
</svg>
