<svg width="10" height="10" viewBox="0 0 10 10" fill="none" xmlns="http://www.w3.org/2000/svg">
<path d="M9.38016 4.99999L9.93281 4.04485C9.99923 3.92993 10.0173 3.79334 9.98303 3.6651C9.94877 3.53687 9.86498 3.42749 9.7501 3.36102L8.79398 2.80836V1.70704C8.79398 1.57427 8.74124 1.44694 8.64736 1.35306C8.55348 1.25918 8.42616 1.20644 8.29339 1.20644H7.19261L6.64046 0.250788C6.57378 0.136108 6.46461 0.0523018 6.3366 0.0175073C6.27311 0.000294549 6.20684 -0.00414383 6.14161 0.00444939C6.07639 0.0130426 6.01353 0.0344965 5.95666 0.0675675L5.00054 0.620231L4.04442 0.0670668C3.92945 0.000685908 3.79282 -0.017303 3.66458 0.0170572C3.53634 0.0514174 3.42701 0.135312 3.36062 0.250287L2.80798 1.20644H1.70719C1.57443 1.20644 1.4471 1.25918 1.35322 1.35306C1.25935 1.44694 1.20661 1.57427 1.20661 1.70704V2.80786L0.250488 3.36052C0.193438 3.39334 0.143433 3.43711 0.103348 3.48931C0.0632635 3.54151 0.033888 3.60112 0.0169096 3.66471C-6.8875e-05 3.7283 -0.00431556 3.79462 0.00441349 3.85985C0.0131425 3.92509 0.0346752 3.98796 0.0677745 4.04485L0.620421 4.99999L0.0677745 5.95514C0.0016916 6.07017 -0.0162378 6.20665 0.0178954 6.33484C0.0520285 6.46303 0.135456 6.57253 0.249988 6.63946L1.20611 7.19213V8.29295C1.20611 8.42572 1.25885 8.55305 1.35272 8.64693C1.4466 8.74081 1.57393 8.79355 1.70669 8.79355H2.80798L3.36062 9.7497C3.40494 9.82546 3.46822 9.88838 3.54423 9.93227C3.62024 9.97615 3.70636 9.9995 3.79413 10C3.88123 10 3.96783 9.97697 4.04492 9.93242L5.00004 9.37976L5.95616 9.93242C6.0711 9.99871 6.20765 10.0167 6.33584 9.98244C6.46403 9.94819 6.5734 9.86449 6.63996 9.7497L7.1921 8.79355H8.29289C8.42566 8.79355 8.55298 8.74081 8.64686 8.64693C8.74074 8.55305 8.79348 8.42572 8.79348 8.29295V7.19213L9.7496 6.63946C9.80655 6.60655 9.85645 6.56274 9.89647 6.51052C9.93647 6.45831 9.9658 6.39872 9.98277 6.33517C9.99974 6.27162 10.004 6.20534 9.99536 6.14013C9.9867 6.07492 9.96527 6.01206 9.93231 5.95514L9.38016 4.99999ZM3.74858 2.49198C3.94779 2.49205 4.13882 2.57125 4.27963 2.71216C4.42045 2.85308 4.49952 3.04416 4.49946 3.24338C4.49939 3.4426 4.42019 3.63363 4.27928 3.77445C4.13837 3.91528 3.94729 3.99435 3.74808 3.99429C3.54887 3.99422 3.35784 3.91502 3.21702 3.7741C3.07621 3.63318 2.99713 3.4421 2.9972 3.24288C2.99727 3.04366 3.07647 2.85263 3.21738 2.71181C3.35829 2.57099 3.54937 2.49191 3.74858 2.49198ZM3.89875 7.29775L3.09782 6.69753L6.10133 2.69272L6.90227 3.29294L3.89875 7.29775ZM6.2515 7.49799C6.15286 7.49796 6.0552 7.4785 5.96408 7.44072C5.87296 7.40294 5.79018 7.34758 5.72045 7.27781C5.65072 7.20803 5.59543 7.12521 5.55771 7.03406C5.51999 6.94292 5.50059 6.84523 5.50063 6.74659C5.50066 6.64795 5.52012 6.55028 5.5579 6.45916C5.59568 6.36804 5.65103 6.28525 5.7208 6.21552C5.79058 6.14579 5.8734 6.09049 5.96454 6.05277C6.05569 6.01505 6.15337 5.99566 6.25201 5.99569C6.45122 5.99576 6.64224 6.07496 6.78306 6.21587C6.92388 6.35679 7.00295 6.54787 7.00288 6.74709C7.00282 6.94631 6.92362 7.13734 6.78271 7.27816C6.6418 7.41898 6.45072 7.49806 6.2515 7.49799Z" fill="#5F6266"/>
</svg>
