<svg width="6" height="9" viewBox="0 0 6 9" fill="none" xmlns="http://www.w3.org/2000/svg">
<path d="M3 2.04546C2.87857 2.04546 2.77671 2.00618 2.69443 1.92764C2.61214 1.84909 2.57114 1.752 2.57143 1.63636C2.57143 1.52046 2.61257 1.42323 2.69486 1.34468C2.77714 1.26614 2.87886 1.227 3 1.22727C3.12143 1.22727 3.22329 1.26655 3.30557 1.34509C3.38786 1.42364 3.42886 1.52073 3.42857 1.63636C3.42857 1.75227 3.38743 1.8495 3.30514 1.92805C3.22286 2.00659 3.12114 2.04573 3 2.04546ZM3 0.818183C2.87857 0.818183 2.77671 0.77891 2.69443 0.700365C2.61214 0.621819 2.57114 0.524729 2.57143 0.409092C2.57143 0.293183 2.61257 0.195956 2.69486 0.11741C2.77714 0.038865 2.87886 -0.000271312 3 1.41554e-06C3.12143 1.41554e-06 3.22329 0.0392741 3.30557 0.11782C3.38786 0.196365 3.42886 0.293456 3.42857 0.409092C3.42857 0.525001 3.38743 0.622229 3.30514 0.700774C3.22286 0.77932 3.12114 0.818456 3 0.818183ZM1.45714 9C1 8.74091 0.642857 8.39318 0.385714 7.95682C0.128571 7.52046 0 7.05 0 6.54545C0 5.99318 0.153571 5.48346 0.460714 5.01627C0.767857 4.54909 1.18571 4.19632 1.71429 3.95796V2.86364C1.71429 2.74773 1.75543 2.6505 1.83771 2.57196C1.92 2.49341 2.02171 2.45427 2.14286 2.45455H3.85714C3.97857 2.45455 4.08043 2.49382 4.16271 2.57236C4.245 2.65091 4.286 2.748 4.28571 2.86364V3.95796C4.80714 4.19659 5.22329 4.5495 5.53414 5.01668C5.845 5.48386 6.00029 5.99346 6 6.54545C6 7.05 5.87143 7.52046 5.61429 7.95682C5.35714 8.39318 5 8.74091 4.54286 9H1.45714ZM1.71429 8.18182H4.28571C4.55714 7.98409 4.76786 7.74368 4.91786 7.46059C5.06786 7.1775 5.14286 6.87246 5.14286 6.54545C5.14286 6.15 5.03386 5.78686 4.81586 5.45605C4.59786 5.12523 4.29971 4.87473 3.92143 4.70455L3.42857 4.47955V3.27273H2.57143V4.47955L2.07857 4.70455C1.7 4.875 1.40186 5.12564 1.18414 5.45646C0.966429 5.78727 0.857428 6.15027 0.857143 6.54545C0.857143 6.87273 0.932143 7.17791 1.08214 7.461C1.23214 7.74409 1.44286 7.98436 1.71429 8.18182ZM0.857143 1.22727C0.735714 1.22727 0.633857 1.188 0.551571 1.10946C0.469286 1.03091 0.428286 0.933819 0.428571 0.818183C0.428571 0.702274 0.469714 0.605047 0.552 0.526501C0.634286 0.447956 0.736 0.40882 0.857143 0.409092C0.978571 0.409092 1.08043 0.448365 1.16271 0.52691C1.245 0.605456 1.286 0.702547 1.28571 0.818183C1.28571 0.934092 1.24457 1.03132 1.16229 1.10986C1.08 1.18841 0.978286 1.22755 0.857143 1.22727ZM5.14286 1.22727C5.02143 1.22727 4.91957 1.188 4.83729 1.10946C4.755 1.03091 4.714 0.933819 4.71429 0.818183C4.71429 0.702274 4.75543 0.605047 4.83771 0.526501C4.92 0.447956 5.02171 0.40882 5.14286 0.409092C5.26429 0.409092 5.36614 0.448365 5.44843 0.52691C5.53071 0.605456 5.57171 0.702547 5.57143 0.818183C5.57143 0.934092 5.53029 1.03132 5.448 1.10986C5.36571 1.18841 5.264 1.22755 5.14286 1.22727ZM1.71429 2.04546C1.59286 2.04546 1.491 2.00618 1.40871 1.92764C1.32643 1.84909 1.28543 1.752 1.28571 1.63636C1.28571 1.52046 1.32686 1.42323 1.40914 1.34468C1.49143 1.26614 1.59314 1.227 1.71429 1.22727C1.83571 1.22727 1.93757 1.26655 2.01986 1.34509C2.10214 1.42364 2.14314 1.52073 2.14286 1.63636C2.14286 1.75227 2.10171 1.8495 2.01943 1.92805C1.93714 2.00659 1.83543 2.04573 1.71429 2.04546ZM4.28571 2.04546C4.16429 2.04546 4.06243 2.00618 3.98014 1.92764C3.89786 1.84909 3.85686 1.752 3.85714 1.63636C3.85714 1.52046 3.89829 1.42323 3.98057 1.34468C4.06286 1.26614 4.16457 1.227 4.28571 1.22727C4.40714 1.22727 4.509 1.26655 4.59129 1.34509C4.67357 1.42364 4.71457 1.52073 4.71429 1.63636C4.71429 1.75227 4.67314 1.8495 4.59086 1.92805C4.50857 2.00659 4.40686 2.04573 4.28571 2.04546Z" fill="#5F6266"/>
</svg>
