<svg width="10" height="10" viewBox="0 0 10 10" fill="none" xmlns="http://www.w3.org/2000/svg">
<path fill-rule="evenodd" clip-rule="evenodd" d="M9.32316 0.331211C9.37459 0.559801 9.23098 0.786804 9.00239 0.838237L6.78803 1.33647V4.24255H8.90926C9.14357 4.24255 9.33351 4.4325 9.33351 4.6668C9.33351 5.92131 8.95441 7.09231 8.16068 7.95411C7.36169 8.82162 6.18125 9.33351 4.6668 9.33351C3.15235 9.33351 1.97191 8.82162 1.17292 7.95411C0.379195 7.09231 9.19128e-05 5.92131 9.19128e-05 4.6668C9.19128e-05 4.4325 0.190033 4.24255 0.424338 4.24255H0.848584V2.67284L0.517465 2.74734C0.288875 2.79878 0.0618721 2.65516 0.0104394 2.42657C-0.0409934 2.19798 0.102621 1.97098 0.331211 1.91955L0.848584 1.80314V1.69708C0.848584 1.46277 1.03853 1.27283 1.27283 1.27283C1.47872 1.27283 1.65036 1.4195 1.68896 1.61405L2.54557 1.42132V1.27283C2.54557 1.03853 2.73551 0.848584 2.96982 0.848584C3.18996 0.848584 3.37094 1.01626 3.39201 1.23087L4.24255 1.0395V0.848584C4.24255 0.61428 4.4325 0.424338 4.6668 0.424338C4.9011 0.424338 5.09105 0.61428 5.09105 0.848584L5.93954 0.657673V0.424338C5.93954 0.190033 6.12948 9.19128e-05 6.36378 9.19128e-05C6.59809 9.19128e-05 6.78803 0.190033 6.78803 0.424338V0.466763L8.81613 0.0104394C9.04473 -0.0409934 9.27173 0.102621 9.32316 0.331211ZM5.93954 1.52738L5.09105 1.71829V4.24255H5.93954V1.52738ZM0.865707 5.09105C0.94044 6.00186 1.25863 6.79471 1.79704 7.37929C2.41222 8.04723 3.35302 8.48502 4.6668 8.48502C5.98058 8.48502 6.92138 8.04723 7.53656 7.37929C8.07497 6.79471 8.39316 6.00186 8.46789 5.09105H0.865707ZM1.69708 4.24255H2.54557V2.29102L1.69708 2.48193V4.24255ZM3.39406 2.10011V4.24255H4.24255V1.9092L3.39406 2.10011Z" fill="#5F6266"/>
</svg>
