<svg width="7" height="9" viewBox="0 0 7 9" fill="none" xmlns="http://www.w3.org/2000/svg">
<path d="M5.28811 0.5625V2.25H2.93764V1.6875H1.83401C1.75689 1.6875 1.6816 1.71738 1.62651 1.77012L1.004 2.36602C0.774464 2.58574 0.401692 2.58574 0.172154 2.36602C-0.0573845 2.14629 -0.0573845 1.78945 0.172154 1.56973L0.794662 0.973828C1.07011 0.710156 1.44472 0.5625 1.83401 0.5625H2.93764C2.93764 0.251367 3.20023 0 3.52525 0H4.70049C5.02552 0 5.28811 0.251367 5.28811 0.5625ZM5.48276 2.8125C6.09425 2.8125 6.60291 3.26074 6.65432 3.84434L6.99588 7.78184C7.0528 8.4375 6.51293 9 5.82431 9H2.40143C1.71465 9 1.17294 8.4375 1.22987 7.78184L1.57326 3.84434C1.62467 3.26074 2.13333 2.8125 2.74482 2.8125H5.48276ZM2.93764 6.32812C2.93764 6.94863 3.46466 7.3125 4.11287 7.3125C4.76109 7.3125 5.28811 6.94863 5.28811 6.32812C5.28811 5.75684 4.60868 4.90605 4.35343 4.60723C4.29467 4.53867 4.20469 4.5 4.11287 4.5C4.02106 4.5 3.93108 4.53867 3.87232 4.60723C3.61707 4.90605 2.93764 5.75684 2.93764 6.32812Z" fill="#5F6266"/>
</svg>
